<svg width="22" height="23" viewBox="0 0 22 23" fill="none" xmlns="http://www.w3.org/2000/svg">
<path d="M12.0954 11.023L20.3174 2.79297C20.4624 2.6472 20.5438 2.44989 20.5437 2.24425C20.5435 2.03861 20.4619 1.8414 20.3167 1.69583C20.0259 1.40657 19.5139 1.40511 19.2203 1.69729L11.0004 9.92732L2.77771 1.6951C2.48553 1.40657 1.97348 1.40803 1.68276 1.69656C1.6106 1.76843 1.55348 1.85395 1.51472 1.94814C1.47597 2.04232 1.45636 2.14328 1.45705 2.24513C1.45705 2.45258 1.5374 2.64688 1.68276 2.79078L9.90476 11.0223L1.68349 19.2545C1.53841 19.4005 1.45716 19.5981 1.45758 19.8039C1.45799 20.0097 1.54002 20.207 1.68568 20.3524C1.82666 20.4919 2.02607 20.5722 2.23206 20.5722H2.23644C2.44316 20.5715 2.64258 20.4904 2.78063 20.3495L11.0004 12.1194L19.2232 20.3516C19.3685 20.4963 19.5628 20.5766 19.7688 20.5766C19.8707 20.5769 19.9716 20.5571 20.0658 20.5182C20.1599 20.4794 20.2455 20.4223 20.3175 20.3503C20.3895 20.2782 20.4466 20.1927 20.4854 20.0985C20.5243 20.0044 20.5441 19.9035 20.5438 19.8016C20.5438 19.5949 20.4635 19.3999 20.3174 19.256L12.0954 11.023Z" fill="#fff"/>
</svg>
